<svg width="553" height="532" viewBox="0 0 553 532" fill="none" xmlns="http://www.w3.org/2000/svg">
<path d="M276.5 527C426.445 527 548 410.146 548 266C548 121.854 426.445 5 276.5 5C126.555 5 5 121.854 5 266C5 410.146 126.555 527 276.5 527Z" fill="white" stroke="black" stroke-width="8.43281"/>
<g filter="url(#filter0_d_1_3)">
<path d="M68.5227 383V353.909H86.0795V357.034H72.0455V366.864H85.1705V369.989H72.0455V379.875H86.3068V383H68.5227ZM92.429 353.909H96.6335L106.52 378.057H106.861L116.747 353.909H120.952V383H117.656V360.898H117.372L108.281 383H105.099L96.0085 360.898H95.7244V383H92.429V353.909ZM129.208 383H125.515L136.197 353.909H139.833L150.515 383H146.822L138.129 358.511H137.901L129.208 383ZM130.572 371.636H145.458V374.761H130.572V371.636ZM178.114 353.909V383H174.705L158.853 360.159H158.569V383H155.046V353.909H158.455L174.364 376.807H174.648V353.909H178.114ZM204.254 353.909H207.777V373.17C207.777 375.159 207.308 376.935 206.371 378.497C205.443 380.05 204.131 381.277 202.436 382.176C200.741 383.066 198.752 383.511 196.47 383.511C194.188 383.511 192.199 383.066 190.504 382.176C188.809 381.277 187.493 380.05 186.555 378.497C185.627 376.935 185.163 375.159 185.163 373.17V353.909H188.686V372.886C188.686 374.307 188.999 375.571 189.624 376.679C190.249 377.777 191.139 378.644 192.294 379.278C193.459 379.903 194.851 380.216 196.47 380.216C198.089 380.216 199.482 379.903 200.646 379.278C201.811 378.644 202.701 377.777 203.317 376.679C203.942 375.571 204.254 374.307 204.254 372.886V353.909ZM214.812 383V353.909H232.369V357.034H218.335V366.864H231.46V369.989H218.335V379.875H232.596V383H214.812ZM238.718 383V353.909H242.241V379.875H255.763V383H238.718ZM272.468 383V353.909H282.638C284.665 353.909 286.336 354.259 287.653 354.96C288.969 355.652 289.949 356.584 290.593 357.759C291.237 358.923 291.559 360.216 291.559 361.636C291.559 362.886 291.336 363.919 290.891 364.733C290.456 365.547 289.878 366.191 289.158 366.665C288.448 367.138 287.676 367.489 286.843 367.716V368C287.733 368.057 288.628 368.369 289.528 368.938C290.427 369.506 291.18 370.32 291.786 371.381C292.392 372.441 292.695 373.739 292.695 375.273C292.695 376.731 292.364 378.043 291.701 379.207C291.038 380.372 289.992 381.295 288.562 381.977C287.132 382.659 285.271 383 282.979 383H272.468ZM275.991 379.875H282.979C285.281 379.875 286.914 379.43 287.88 378.54C288.855 377.64 289.343 376.551 289.343 375.273C289.343 374.288 289.092 373.379 288.59 372.545C288.088 371.703 287.373 371.03 286.445 370.528C285.517 370.017 284.419 369.761 283.15 369.761H275.991V379.875ZM275.991 366.693H282.525C283.585 366.693 284.542 366.485 285.394 366.068C286.256 365.652 286.938 365.064 287.44 364.307C287.951 363.549 288.207 362.659 288.207 361.636C288.207 360.358 287.762 359.274 286.871 358.384C285.981 357.484 284.57 357.034 282.638 357.034H275.991V366.693ZM298.484 383V353.909H316.04V357.034H302.006V366.864H315.131V369.989H302.006V379.875H316.268V383H298.484ZM345.458 353.909V383H342.049L326.197 360.159H325.913V383H322.39V353.909H325.799L341.708 376.807H341.992V353.909H345.458ZM363.643 353.909H367.166V374.705C367.166 376.561 366.825 378.137 366.143 379.435C365.462 380.732 364.5 381.717 363.26 382.389C362.019 383.062 360.556 383.398 358.871 383.398C357.28 383.398 355.864 383.109 354.624 382.531C353.383 381.944 352.408 381.111 351.697 380.031C350.987 378.952 350.632 377.669 350.632 376.182H354.098C354.098 377.006 354.302 377.725 354.709 378.341C355.125 378.947 355.694 379.42 356.413 379.761C357.133 380.102 357.952 380.273 358.871 380.273C359.884 380.273 360.746 380.06 361.456 379.634C362.166 379.207 362.706 378.582 363.075 377.759C363.454 376.925 363.643 375.907 363.643 374.705V353.909ZM393.317 353.909H396.839V373.17C396.839 375.159 396.371 376.935 395.433 378.497C394.505 380.05 393.194 381.277 391.499 382.176C389.804 383.066 387.815 383.511 385.533 383.511C383.25 383.511 381.262 383.066 379.567 382.176C377.872 381.277 376.555 380.05 375.618 378.497C374.69 376.935 374.226 375.159 374.226 373.17V353.909H377.749V372.886C377.749 374.307 378.061 375.571 378.686 376.679C379.311 377.777 380.201 378.644 381.357 379.278C382.521 379.903 383.913 380.216 385.533 380.216C387.152 380.216 388.544 379.903 389.709 379.278C390.874 378.644 391.764 377.777 392.379 376.679C393.004 375.571 393.317 374.307 393.317 372.886V353.909ZM403.874 353.909H408.079L417.965 378.057H418.306L428.192 353.909H432.397V383H429.102V360.898H428.817L419.727 383H416.545L407.454 360.898H407.17V383H403.874V353.909ZM439.46 383V353.909H457.017V357.034H442.983V366.864H456.108V369.989H442.983V379.875H457.244V383H439.46ZM464.56 383H460.866L471.548 353.909H475.185L485.866 383H482.173L473.48 358.511H473.253L464.56 383ZM465.923 371.636H480.81V374.761H465.923V371.636Z" fill="black"/>
<path d="M68.5227 383H67.5227V384H68.5227V383ZM68.5227 353.909V352.909H67.5227V353.909H68.5227ZM86.0795 353.909H87.0795V352.909H86.0795V353.909ZM86.0795 357.034V358.034H87.0795V357.034H86.0795ZM72.0455 357.034V356.034H71.0455V357.034H72.0455ZM72.0455 366.864H71.0455V367.864H72.0455V366.864ZM85.1705 366.864H86.1705V365.864H85.1705V366.864ZM85.1705 369.989V370.989H86.1705V369.989H85.1705ZM72.0455 369.989V368.989H71.0455V369.989H72.0455ZM72.0455 379.875H71.0455V380.875H72.0455V379.875ZM86.3068 379.875H87.3068V378.875H86.3068V379.875ZM86.3068 383V384H87.3068V383H86.3068ZM69.5227 383V353.909H67.5227V383H69.5227ZM68.5227 354.909H86.0795V352.909H68.5227V354.909ZM85.0795 353.909V357.034H87.0795V353.909H85.0795ZM86.0795 356.034H72.0455V358.034H86.0795V356.034ZM71.0455 357.034V366.864H73.0455V357.034H71.0455ZM72.0455 367.864H85.1705V365.864H72.0455V367.864ZM84.1705 366.864V369.989H86.1705V366.864H84.1705ZM85.1705 368.989H72.0455V370.989H85.1705V368.989ZM71.0455 369.989V379.875H73.0455V369.989H71.0455ZM72.0455 380.875H86.3068V378.875H72.0455V380.875ZM85.3068 379.875V383H87.3068V379.875H85.3068ZM86.3068 382H68.5227V384H86.3068V382ZM92.429 353.909V352.909H91.429V353.909H92.429ZM96.6335 353.909L97.559 353.53L97.3047 352.909H96.6335V353.909ZM106.52 378.057L105.594 378.436L105.849 379.057H106.52V378.057ZM106.861 378.057V379.057H107.532L107.786 378.436L106.861 378.057ZM116.747 353.909V352.909H116.076L115.822 353.53L116.747 353.909ZM120.952 353.909H121.952V352.909H120.952V353.909ZM120.952 383V384H121.952V383H120.952ZM117.656 383H116.656V384H117.656V383ZM117.656 360.898H118.656V359.898H117.656V360.898ZM117.372 360.898V359.898H116.702L116.447 360.517L117.372 360.898ZM108.281 383V384H108.951L109.206 383.38L108.281 383ZM105.099 383L104.175 383.38L104.429 384H105.099V383ZM96.0085 360.898L96.9333 360.517L96.6785 359.898H96.0085V360.898ZM95.7244 360.898V359.898H94.7244V360.898H95.7244ZM95.7244 383V384H96.7244V383H95.7244ZM92.429 383H91.429V384H92.429V383ZM92.429 354.909H96.6335V352.909H92.429V354.909ZM95.7081 354.288L105.594 378.436L107.445 377.678L97.559 353.53L95.7081 354.288ZM106.52 379.057H106.861V377.057H106.52V379.057ZM107.786 378.436L117.673 354.288L115.822 353.53L105.935 377.678L107.786 378.436ZM116.747 354.909H120.952V352.909H116.747V354.909ZM119.952 353.909V383H121.952V353.909H119.952ZM120.952 382H117.656V384H120.952V382ZM118.656 383V360.898H116.656V383H118.656ZM117.656 359.898H117.372V361.898H117.656V359.898ZM116.447 360.517L107.356 382.62L109.206 383.38L118.297 361.278L116.447 360.517ZM108.281 382H105.099V384H108.281V382ZM106.024 382.62L96.9333 360.517L95.0837 361.278L104.175 383.38L106.024 382.62ZM96.0085 359.898H95.7244V361.898H96.0085V359.898ZM94.7244 360.898V383H96.7244V360.898H94.7244ZM95.7244 382H92.429V384H95.7244V382ZM93.429 383V353.909H91.429V383H93.429ZM129.208 383V384H129.914L130.15 383.335L129.208 383ZM125.515 383L124.576 382.655L124.082 384H125.515V383ZM136.197 353.909V352.909H135.499L135.258 353.564L136.197 353.909ZM139.833 353.909L140.772 353.564L140.531 352.909H139.833V353.909ZM150.515 383V384H151.947L151.454 382.655L150.515 383ZM146.822 383L145.879 383.335L146.116 384H146.822V383ZM138.129 358.511L139.071 358.177L138.835 357.511H138.129V358.511ZM137.901 358.511V357.511H137.195L136.959 358.177L137.901 358.511ZM130.572 371.636V370.636H129.572V371.636H130.572ZM145.458 371.636H146.458V370.636H145.458V371.636ZM145.458 374.761V375.761H146.458V374.761H145.458ZM130.572 374.761H129.572V375.761H130.572V374.761ZM129.208 382H125.515V384H129.208V382ZM126.454 383.345L137.135 354.254L135.258 353.564L124.576 382.655L126.454 383.345ZM136.197 354.909H139.833V352.909H136.197V354.909ZM138.894 354.254L149.576 383.345L151.454 382.655L140.772 353.564L138.894 354.254ZM150.515 382H146.822V384H150.515V382ZM147.764 382.665L139.071 358.177L137.186 358.846L145.879 383.335L147.764 382.665ZM138.129 357.511H137.901V359.511H138.129V357.511ZM136.959 358.177L128.266 382.665L130.15 383.335L138.844 358.846L136.959 358.177ZM130.572 372.636H145.458V370.636H130.572V372.636ZM144.458 371.636V374.761H146.458V371.636H144.458ZM145.458 373.761H130.572V375.761H145.458V373.761ZM131.572 374.761V371.636H129.572V374.761H131.572ZM178.114 353.909H179.114V352.909H178.114V353.909ZM178.114 383V384H179.114V383H178.114ZM174.705 383L173.884 383.57L174.182 384H174.705V383ZM158.853 360.159L159.675 359.589L159.376 359.159H158.853V360.159ZM158.569 360.159V359.159H157.569V360.159H158.569ZM158.569 383V384H159.569V383H158.569ZM155.046 383H154.046V384H155.046V383ZM155.046 353.909V352.909H154.046V353.909H155.046ZM158.455 353.909L159.276 353.339L158.978 352.909H158.455V353.909ZM174.364 376.807L173.543 377.377L173.841 377.807H174.364V376.807ZM174.648 376.807V377.807H175.648V376.807H174.648ZM174.648 353.909V352.909H173.648V353.909H174.648ZM177.114 353.909V383H179.114V353.909H177.114ZM178.114 382H174.705V384H178.114V382ZM175.527 382.43L159.675 359.589L158.031 360.729L173.884 383.57L175.527 382.43ZM158.853 359.159H158.569V361.159H158.853V359.159ZM157.569 360.159V383H159.569V360.159H157.569ZM158.569 382H155.046V384H158.569V382ZM156.046 383V353.909H154.046V383H156.046ZM155.046 354.909H158.455V352.909H155.046V354.909ZM157.634 354.48L173.543 377.377L175.186 376.236L159.276 353.339L157.634 354.48ZM174.364 377.807H174.648V375.807H174.364V377.807ZM175.648 376.807V353.909H173.648V376.807H175.648ZM174.648 354.909H178.114V352.909H174.648V354.909ZM204.254 353.909V352.909H203.254V353.909H204.254ZM207.777 353.909H208.777V352.909H207.777V353.909ZM206.371 378.497L205.513 377.983L205.512 377.984L206.371 378.497ZM202.436 382.176L202.901 383.061L202.905 383.059L202.436 382.176ZM190.504 382.176L190.035 383.059L190.039 383.061L190.504 382.176ZM186.555 378.497L185.696 379.008L185.699 379.014L186.555 378.497ZM185.163 353.909V352.909H184.163V353.909H185.163ZM188.686 353.909H189.686V352.909H188.686V353.909ZM189.624 376.679L188.753 377.17L188.754 377.174L189.624 376.679ZM192.294 379.278L191.813 380.155L191.821 380.16L192.294 379.278ZM200.646 379.278L201.119 380.16L201.125 380.157L200.646 379.278ZM203.317 376.679L202.446 376.188L202.444 376.19L203.317 376.679ZM204.254 354.909H207.777V352.909H204.254V354.909ZM206.777 353.909V373.17H208.777V353.909H206.777ZM206.777 373.17C206.777 374.995 206.349 376.59 205.513 377.983L207.228 379.012C208.267 377.28 208.777 375.323 208.777 373.17H206.777ZM205.512 377.984C204.684 379.371 203.511 380.473 201.967 381.293L202.905 383.059C204.751 382.08 206.202 380.729 207.229 379.01L205.512 377.984ZM201.971 381.291C200.445 382.092 198.621 382.511 196.47 382.511V384.511C198.883 384.511 201.037 384.04 202.901 383.061L201.971 381.291ZM196.47 382.511C194.319 382.511 192.496 382.092 190.969 381.291L190.039 383.061C191.903 384.04 194.057 384.511 196.47 384.511V382.511ZM190.973 381.293C189.428 380.473 188.25 379.369 187.412 377.98L185.699 379.014C186.736 380.731 188.19 382.08 190.035 383.059L190.973 381.293ZM187.415 377.987C186.587 376.593 186.163 374.997 186.163 373.17H184.163C184.163 375.321 184.667 377.276 185.696 379.008L187.415 377.987ZM186.163 373.17V353.909H184.163V373.17H186.163ZM185.163 354.909H188.686V352.909H185.163V354.909ZM187.686 353.909V372.886H189.686V353.909H187.686ZM187.686 372.886C187.686 374.458 188.033 375.896 188.753 377.17L190.495 376.188C189.964 375.247 189.686 374.155 189.686 372.886H187.686ZM188.754 377.174C189.475 378.44 190.503 379.435 191.813 380.155L192.775 378.402C191.775 377.852 191.022 377.115 190.493 376.184L188.754 377.174ZM191.821 380.16C193.161 380.878 194.723 381.216 196.47 381.216V379.216C194.979 379.216 193.757 378.929 192.767 378.397L191.821 380.16ZM196.47 381.216C198.218 381.216 199.78 380.878 201.119 380.16L200.173 378.397C199.183 378.929 197.961 379.216 196.47 379.216V381.216ZM201.125 380.157C202.446 379.437 203.477 378.44 204.189 377.168L202.444 376.19C201.926 377.115 201.177 377.851 200.168 378.4L201.125 380.157ZM204.188 377.17C204.907 375.896 205.254 374.458 205.254 372.886H203.254C203.254 374.155 202.977 375.247 202.446 376.188L204.188 377.17ZM205.254 372.886V353.909H203.254V372.886H205.254ZM214.812 383H213.812V384H214.812V383ZM214.812 353.909V352.909H213.812V353.909H214.812ZM232.369 353.909H233.369V352.909H232.369V353.909ZM232.369 357.034V358.034H233.369V357.034H232.369ZM218.335 357.034V356.034H217.335V357.034H218.335ZM218.335 366.864H217.335V367.864H218.335V366.864ZM231.46 366.864H232.46V365.864H231.46V366.864ZM231.46 369.989V370.989H232.46V369.989H231.46ZM218.335 369.989V368.989H217.335V369.989H218.335ZM218.335 379.875H217.335V380.875H218.335V379.875ZM232.596 379.875H233.596V378.875H232.596V379.875ZM232.596 383V384H233.596V383H232.596ZM215.812 383V353.909H213.812V383H215.812ZM214.812 354.909H232.369V352.909H214.812V354.909ZM231.369 353.909V357.034H233.369V353.909H231.369ZM232.369 356.034H218.335V358.034H232.369V356.034ZM217.335 357.034V366.864H219.335V357.034H217.335ZM218.335 367.864H231.46V365.864H218.335V367.864ZM230.46 366.864V369.989H232.46V366.864H230.46ZM231.46 368.989H218.335V370.989H231.46V368.989ZM217.335 369.989V379.875H219.335V369.989H217.335ZM218.335 380.875H232.596V378.875H218.335V380.875ZM231.596 379.875V383H233.596V379.875H231.596ZM232.596 382H214.812V384H232.596V382ZM238.718 383H237.718V384H238.718V383ZM238.718 353.909V352.909H237.718V353.909H238.718ZM242.241 353.909H243.241V352.909H242.241V353.909ZM242.241 379.875H241.241V380.875H242.241V379.875ZM255.763 379.875H256.763V378.875H255.763V379.875ZM255.763 383V384H256.763V383H255.763ZM239.718 383V353.909H237.718V383H239.718ZM238.718 354.909H242.241V352.909H238.718V354.909ZM241.241 353.909V379.875H243.241V353.909H241.241ZM242.241 380.875H255.763V378.875H242.241V380.875ZM254.763 379.875V383H256.763V379.875H254.763ZM255.763 382H238.718V384H255.763V382ZM272.468 383H271.468V384H272.468V383ZM272.468 353.909V352.909H271.468V353.909H272.468ZM287.653 354.96L287.183 355.843L287.188 355.846L287.653 354.96ZM290.593 357.759L289.716 358.239L289.718 358.242L290.593 357.759ZM290.891 364.733L290.014 364.253L290.01 364.261L290.891 364.733ZM289.158 366.665L288.609 365.829L288.604 365.833L289.158 366.665ZM286.843 367.716L286.58 366.751L285.843 366.952V367.716H286.843ZM286.843 368H285.843V368.938L286.779 368.998L286.843 368ZM289.528 368.938L288.994 369.783L288.994 369.783L289.528 368.938ZM291.701 379.207L292.57 379.702L292.57 379.702L291.701 379.207ZM288.562 381.977L288.131 381.075L288.131 381.075L288.562 381.977ZM275.991 379.875H274.991V380.875H275.991V379.875ZM287.88 378.54L288.558 379.275L288.558 379.275L287.88 378.54ZM288.59 372.545L287.731 373.057L287.734 373.061L288.59 372.545ZM286.445 370.528L285.963 371.404L285.97 371.408L286.445 370.528ZM275.991 369.761V368.761H274.991V369.761H275.991ZM275.991 366.693H274.991V367.693H275.991V366.693ZM285.394 366.068L284.959 365.168L284.955 365.17L285.394 366.068ZM287.44 364.307L286.611 363.747L286.606 363.755L287.44 364.307ZM286.871 358.384L286.161 359.087L286.164 359.091L286.871 358.384ZM275.991 357.034V356.034H274.991V357.034H275.991ZM273.468 383V353.909H271.468V383H273.468ZM272.468 354.909H282.638V352.909H272.468V354.909ZM282.638 354.909C284.557 354.909 286.054 355.242 287.183 355.843L288.123 354.078C286.619 353.277 284.773 352.909 282.638 352.909V354.909ZM287.188 355.846C288.35 356.456 289.177 357.256 289.716 358.239L291.47 357.278C290.721 355.912 289.588 354.847 288.118 354.075L287.188 355.846ZM289.718 358.242C290.274 359.249 290.559 360.373 290.559 361.636H292.559C292.559 360.058 292.2 358.598 291.468 357.275L289.718 358.242ZM290.559 361.636C290.559 362.775 290.355 363.628 290.014 364.253L291.769 365.213C292.317 364.209 292.559 362.998 292.559 361.636H290.559ZM290.01 364.261C289.647 364.94 289.179 365.454 288.609 365.829L289.708 367.5C290.577 366.928 291.265 366.155 291.773 365.205L290.01 364.261ZM288.604 365.833C287.984 366.246 287.311 366.552 286.58 366.751L287.106 368.681C288.042 368.425 288.912 368.031 289.713 367.497L288.604 365.833ZM285.843 367.716V368H287.843V367.716H285.843ZM286.779 368.998C287.473 369.042 288.208 369.287 288.994 369.783L290.062 368.092C289.048 367.452 287.993 367.071 286.907 367.002L286.779 368.998ZM288.994 369.783C289.736 370.252 290.381 370.937 290.918 371.877L292.654 370.885C291.979 369.703 291.119 368.76 290.062 368.092L288.994 369.783ZM290.918 371.877C291.418 372.752 291.695 373.869 291.695 375.273H293.695C293.695 373.608 293.366 372.13 292.654 370.885L290.918 371.877ZM291.695 375.273C291.695 376.573 291.402 377.712 290.832 378.713L292.57 379.702C293.326 378.373 293.695 376.889 293.695 375.273H291.695ZM290.832 378.713C290.287 379.669 289.411 380.464 288.131 381.075L288.992 382.88C290.572 382.127 291.789 381.075 292.57 379.702L290.832 378.713ZM288.131 381.075C286.882 381.67 285.184 382 282.979 382V384C285.358 384 287.382 383.648 288.992 382.88L288.131 381.075ZM282.979 382H272.468V384H282.979V382ZM275.991 380.875H282.979V378.875H275.991V380.875ZM282.979 380.875C285.359 380.875 287.311 380.424 288.558 379.275L287.202 377.804C286.517 378.436 285.202 378.875 282.979 378.875V380.875ZM288.558 379.275C289.73 378.194 290.343 376.842 290.343 375.273H288.343C288.343 376.26 287.981 377.086 287.202 377.805L288.558 379.275ZM290.343 375.273C290.343 374.108 290.044 373.021 289.447 372.03L287.734 373.061C288.14 373.737 288.343 374.467 288.343 375.273H290.343ZM289.449 372.034C288.848 371.024 287.995 370.23 286.921 369.649L285.97 371.408C286.751 371.831 287.328 372.381 287.731 373.057L289.449 372.034ZM286.928 369.653C285.825 369.045 284.554 368.761 283.15 368.761V370.761C284.283 370.761 285.209 370.989 285.963 371.404L286.928 369.653ZM283.15 368.761H275.991V370.761H283.15V368.761ZM274.991 369.761V379.875H276.991V369.761H274.991ZM275.991 367.693H282.525V365.693H275.991V367.693ZM282.525 367.693C283.72 367.693 284.829 367.458 285.833 366.967L284.955 365.17C284.255 365.512 283.451 365.693 282.525 365.693V367.693ZM285.829 366.968C286.844 366.478 287.667 365.774 288.273 364.859L286.606 363.755C286.209 364.354 285.668 364.825 284.959 365.168L285.829 366.968ZM288.268 364.866C288.904 363.924 289.207 362.834 289.207 361.636H287.207C287.207 362.484 286.998 363.174 286.611 363.747L288.268 364.866ZM289.207 361.636C289.207 360.097 288.659 358.757 287.579 357.676L286.164 359.091C286.864 359.79 287.207 360.619 287.207 361.636H289.207ZM287.582 357.68C286.425 356.511 284.699 356.034 282.638 356.034V358.034C284.441 358.034 285.537 358.457 286.161 359.087L287.582 357.68ZM282.638 356.034H275.991V358.034H282.638V356.034ZM274.991 357.034V366.693H276.991V357.034H274.991ZM298.484 383H297.484V384H298.484V383ZM298.484 353.909V352.909H297.484V353.909H298.484ZM316.04 353.909H317.04V352.909H316.04V353.909ZM316.04 357.034V358.034H317.04V357.034H316.04ZM302.006 357.034V356.034H301.006V357.034H302.006ZM302.006 366.864H301.006V367.864H302.006V366.864ZM315.131 366.864H316.131V365.864H315.131V366.864ZM315.131 369.989V370.989H316.131V369.989H315.131ZM302.006 369.989V368.989H301.006V369.989H302.006ZM302.006 379.875H301.006V380.875H302.006V379.875ZM316.268 379.875H317.268V378.875H316.268V379.875ZM316.268 383V384H317.268V383H316.268ZM299.484 383V353.909H297.484V383H299.484ZM298.484 354.909H316.04V352.909H298.484V354.909ZM315.04 353.909V357.034H317.04V353.909H315.04ZM316.04 356.034H302.006V358.034H316.04V356.034ZM301.006 357.034V366.864H303.006V357.034H301.006ZM302.006 367.864H315.131V365.864H302.006V367.864ZM314.131 366.864V369.989H316.131V366.864H314.131ZM315.131 368.989H302.006V370.989H315.131V368.989ZM301.006 369.989V379.875H303.006V369.989H301.006ZM302.006 380.875H316.268V378.875H302.006V380.875ZM315.268 379.875V383H317.268V379.875H315.268ZM316.268 382H298.484V384H316.268V382ZM345.458 353.909H346.458V352.909H345.458V353.909ZM345.458 383V384H346.458V383H345.458ZM342.049 383L341.227 383.57L341.526 384H342.049V383ZM326.197 360.159L327.018 359.589L326.72 359.159H326.197V360.159ZM325.913 360.159V359.159H324.913V360.159H325.913ZM325.913 383V384H326.913V383H325.913ZM322.39 383H321.39V384H322.39V383ZM322.39 353.909V352.909H321.39V353.909H322.39ZM325.799 353.909L326.62 353.339L326.322 352.909H325.799V353.909ZM341.708 376.807L340.887 377.377L341.185 377.807H341.708V376.807ZM341.992 376.807V377.807H342.992V376.807H341.992ZM341.992 353.909V352.909H340.992V353.909H341.992ZM344.458 353.909V383H346.458V353.909H344.458ZM345.458 382H342.049V384H345.458V382ZM342.871 382.43L327.018 359.589L325.375 360.729L341.227 383.57L342.871 382.43ZM326.197 359.159H325.913V361.159H326.197V359.159ZM324.913 360.159V383H326.913V360.159H324.913ZM325.913 382H322.39V384H325.913V382ZM323.39 383V353.909H321.39V383H323.39ZM322.39 354.909H325.799V352.909H322.39V354.909ZM324.978 354.48L340.887 377.377L342.529 376.236L326.62 353.339L324.978 354.48ZM341.708 377.807H341.992V375.807H341.708V377.807ZM342.992 376.807V353.909H340.992V376.807H342.992ZM341.992 354.909H345.458V352.909H341.992V354.909ZM363.643 353.909V352.909H362.643V353.909H363.643ZM367.166 353.909H368.166V352.909H367.166V353.909ZM366.143 379.435L367.029 379.9L367.029 379.9L366.143 379.435ZM363.26 382.389L363.736 383.268L363.736 383.268L363.26 382.389ZM354.624 382.531L354.196 383.435L354.201 383.438L354.624 382.531ZM351.697 380.031L350.862 380.581L350.862 380.581L351.697 380.031ZM350.632 376.182V375.182H349.632V376.182H350.632ZM354.098 376.182H355.098V375.182H354.098V376.182ZM354.709 378.341L353.875 378.893L353.88 378.9L353.885 378.907L354.709 378.341ZM356.413 379.761L356.841 378.858L356.841 378.858L356.413 379.761ZM361.456 379.634L360.941 378.776L360.941 378.776L361.456 379.634ZM363.075 377.759L362.165 377.345L362.163 377.349L363.075 377.759ZM363.643 354.909H367.166V352.909H363.643V354.909ZM366.166 353.909V374.705H368.166V353.909H366.166ZM366.166 374.705C366.166 376.441 365.847 377.849 365.258 378.969L367.029 379.9C367.803 378.426 368.166 376.681 368.166 374.705H366.166ZM365.258 378.969C364.665 380.099 363.843 380.936 362.783 381.51L363.736 383.268C365.158 382.498 366.258 381.365 367.029 379.9L365.258 378.969ZM362.783 381.51C361.715 382.089 360.422 382.398 358.871 382.398V384.398C360.69 384.398 362.324 384.034 363.736 383.268L362.783 381.51ZM358.871 382.398C357.402 382.398 356.134 382.132 355.046 381.625L354.201 383.438C355.594 384.086 357.158 384.398 358.871 384.398V382.398ZM355.051 381.627C353.966 381.114 353.136 380.398 352.533 379.482L350.862 380.581C351.679 381.823 352.8 382.775 354.196 383.435L355.051 381.627ZM352.533 379.482C351.945 378.589 351.632 377.503 351.632 376.182H349.632C349.632 377.834 350.029 379.315 350.862 380.581L352.533 379.482ZM350.632 377.182H354.098V375.182H350.632V377.182ZM353.098 376.182C353.098 377.178 353.347 378.095 353.875 378.893L355.543 377.789C355.256 377.356 355.098 376.833 355.098 376.182H353.098ZM353.885 378.907C354.41 379.671 355.12 380.255 355.985 380.665L356.841 378.858C356.268 378.586 355.841 378.223 355.533 377.774L353.885 378.907ZM355.985 380.665C356.858 381.078 357.827 381.273 358.871 381.273V379.273C358.078 379.273 357.408 379.126 356.841 378.858L355.985 380.665ZM358.871 381.273C360.025 381.273 361.073 381.029 361.97 380.491L360.941 378.776C360.418 379.09 359.743 379.273 358.871 379.273V381.273ZM361.97 380.491C362.872 379.95 363.543 379.16 363.988 378.168L362.163 377.349C361.869 378.004 361.46 378.465 360.941 378.776L361.97 380.491ZM363.986 378.172C364.439 377.175 364.643 376.007 364.643 374.705H362.643C362.643 375.807 362.469 376.675 362.165 377.345L363.986 378.172ZM364.643 374.705V353.909H362.643V374.705H364.643ZM393.317 353.909V352.909H392.317V353.909H393.317ZM396.839 353.909H397.839V352.909H396.839V353.909ZM395.433 378.497L394.576 377.983L394.575 377.984L395.433 378.497ZM391.499 382.176L391.964 383.061L391.967 383.059L391.499 382.176ZM379.567 382.176L379.098 383.059L379.102 383.061L379.567 382.176ZM375.618 378.497L374.758 379.008L374.762 379.014L375.618 378.497ZM374.226 353.909V352.909H373.226V353.909H374.226ZM377.749 353.909H378.749V352.909H377.749V353.909ZM378.686 376.679L377.815 377.17L377.817 377.174L378.686 376.679ZM381.357 379.278L380.875 380.155L380.884 380.16L381.357 379.278ZM389.709 379.278L390.182 380.16L390.187 380.157L389.709 379.278ZM392.379 376.679L391.508 376.188L391.507 376.19L392.379 376.679ZM393.317 354.909H396.839V352.909H393.317V354.909ZM395.839 353.909V373.17H397.839V353.909H395.839ZM395.839 373.17C395.839 374.995 395.412 376.59 394.576 377.983L396.291 379.012C397.33 377.28 397.839 375.323 397.839 373.17H395.839ZM394.575 377.984C393.746 379.371 392.574 380.473 391.03 381.293L391.967 383.059C393.813 382.08 395.264 380.729 396.292 379.01L394.575 377.984ZM391.034 381.291C389.507 382.092 387.684 382.511 385.533 382.511V384.511C387.946 384.511 390.1 384.04 391.964 383.061L391.034 381.291ZM385.533 382.511C383.381 382.511 381.558 382.092 380.032 381.291L379.102 383.061C380.965 384.04 383.119 384.511 385.533 384.511V382.511ZM380.036 381.293C378.491 380.473 377.312 379.369 376.474 377.98L374.762 379.014C375.798 380.731 377.253 382.08 379.098 383.059L380.036 381.293ZM376.478 377.987C375.65 376.593 375.226 374.997 375.226 373.17H373.226C373.226 375.321 373.73 377.276 374.758 379.008L376.478 377.987ZM375.226 373.17V353.909H373.226V373.17H375.226ZM374.226 354.909H377.749V352.909H374.226V354.909ZM376.749 353.909V372.886H378.749V353.909H376.749ZM376.749 372.886C376.749 374.458 377.096 375.896 377.815 377.17L379.557 376.188C379.026 375.247 378.749 374.155 378.749 372.886H376.749ZM377.817 377.174C378.537 378.44 379.565 379.435 380.875 380.155L381.838 378.402C380.837 377.852 380.085 377.115 379.555 376.184L377.817 377.174ZM380.884 380.16C382.223 380.878 383.785 381.216 385.533 381.216V379.216C384.042 379.216 382.82 378.929 381.829 378.397L380.884 380.16ZM385.533 381.216C387.28 381.216 388.842 380.878 390.182 380.16L389.236 378.397C388.246 378.929 387.024 379.216 385.533 379.216V381.216ZM390.187 380.157C391.508 379.437 392.539 378.44 393.252 377.168L391.507 376.19C390.988 377.115 390.239 377.851 389.23 378.4L390.187 380.157ZM393.25 377.17C393.969 375.896 394.317 374.458 394.317 372.886H392.317C392.317 374.155 392.039 375.247 391.508 376.188L393.25 377.17ZM394.317 372.886V353.909H392.317V372.886H394.317ZM403.874 353.909V352.909H402.874V353.909H403.874ZM408.079 353.909L409.004 353.53L408.75 352.909H408.079V353.909ZM417.965 378.057L417.04 378.436L417.294 379.057H417.965V378.057ZM418.306 378.057V379.057H418.977L419.232 378.436L418.306 378.057ZM428.192 353.909V352.909H427.521L427.267 353.53L428.192 353.909ZM432.397 353.909H433.397V352.909H432.397V353.909ZM432.397 383V384H433.397V383H432.397ZM429.102 383H428.102V384H429.102V383ZM429.102 360.898H430.102V359.898H429.102V360.898ZM428.817 360.898V359.898H428.147L427.893 360.517L428.817 360.898ZM419.727 383V384H420.397L420.651 383.38L419.727 383ZM416.545 383L415.62 383.38L415.875 384H416.545V383ZM407.454 360.898L408.379 360.517L408.124 359.898H407.454V360.898ZM407.17 360.898V359.898H406.17V360.898H407.17ZM407.17 383V384H408.17V383H407.17ZM403.874 383H402.874V384H403.874V383ZM403.874 354.909H408.079V352.909H403.874V354.909ZM407.153 354.288L417.04 378.436L418.891 377.678L409.004 353.53L407.153 354.288ZM417.965 379.057H418.306V377.057H417.965V379.057ZM419.232 378.436L429.118 354.288L427.267 353.53L417.381 377.678L419.232 378.436ZM428.192 354.909H432.397V352.909H428.192V354.909ZM431.397 353.909V383H433.397V353.909H431.397ZM432.397 382H429.102V384H432.397V382ZM430.102 383V360.898H428.102V383H430.102ZM429.102 359.898H428.817V361.898H429.102V359.898ZM427.893 360.517L418.802 382.62L420.651 383.38L429.742 361.278L427.893 360.517ZM419.727 382H416.545V384H419.727V382ZM417.47 382.62L408.379 360.517L406.529 361.278L415.62 383.38L417.47 382.62ZM407.454 359.898H407.17V361.898H407.454V359.898ZM406.17 360.898V383H408.17V360.898H406.17ZM407.17 382H403.874V384H407.17V382ZM404.874 383V353.909H402.874V383H404.874ZM439.46 383H438.46V384H439.46V383ZM439.46 353.909V352.909H438.46V353.909H439.46ZM457.017 353.909H458.017V352.909H457.017V353.909ZM457.017 357.034V358.034H458.017V357.034H457.017ZM442.983 357.034V356.034H441.983V357.034H442.983ZM442.983 366.864H441.983V367.864H442.983V366.864ZM456.108 366.864H457.108V365.864H456.108V366.864ZM456.108 369.989V370.989H457.108V369.989H456.108ZM442.983 369.989V368.989H441.983V369.989H442.983ZM442.983 379.875H441.983V380.875H442.983V379.875ZM457.244 379.875H458.244V378.875H457.244V379.875ZM457.244 383V384H458.244V383H457.244ZM440.46 383V353.909H438.46V383H440.46ZM439.46 354.909H457.017V352.909H439.46V354.909ZM456.017 353.909V357.034H458.017V353.909H456.017ZM457.017 356.034H442.983V358.034H457.017V356.034ZM441.983 357.034V366.864H443.983V357.034H441.983ZM442.983 367.864H456.108V365.864H442.983V367.864ZM455.108 366.864V369.989H457.108V366.864H455.108ZM456.108 368.989H442.983V370.989H456.108V368.989ZM441.983 369.989V379.875H443.983V369.989H441.983ZM442.983 380.875H457.244V378.875H442.983V380.875ZM456.244 379.875V383H458.244V379.875H456.244ZM457.244 382H439.46V384H457.244V382ZM464.56 383V384H465.266L465.502 383.335L464.56 383ZM460.866 383L459.928 382.655L459.434 384H460.866V383ZM471.548 353.909V352.909H470.85L470.61 353.564L471.548 353.909ZM475.185 353.909L476.123 353.564L475.883 352.909H475.185V353.909ZM485.866 383V384H487.299L486.805 382.655L485.866 383ZM482.173 383L481.231 383.335L481.467 384H482.173V383ZM473.48 358.511L474.422 358.177L474.186 357.511H473.48V358.511ZM473.253 358.511V357.511H472.547L472.31 358.177L473.253 358.511ZM465.923 371.636V370.636H464.923V371.636H465.923ZM480.81 371.636H481.81V370.636H480.81V371.636ZM480.81 374.761V375.761H481.81V374.761H480.81ZM465.923 374.761H464.923V375.761H465.923V374.761ZM464.56 382H460.866V384H464.56V382ZM461.805 383.345L472.487 354.254L470.61 353.564L459.928 382.655L461.805 383.345ZM471.548 354.909H475.185V352.909H471.548V354.909ZM474.246 354.254L484.928 383.345L486.805 382.655L476.123 353.564L474.246 354.254ZM485.866 382H482.173V384H485.866V382ZM483.116 382.665L474.422 358.177L472.538 358.846L481.231 383.335L483.116 382.665ZM473.48 357.511H473.253V359.511H473.48V357.511ZM472.31 358.177L463.617 382.665L465.502 383.335L474.195 358.846L472.31 358.177ZM465.923 372.636H480.81V370.636H465.923V372.636ZM479.81 371.636V374.761H481.81V371.636H479.81ZM480.81 373.761H465.923V375.761H480.81V373.761ZM466.923 374.761V371.636H464.923V374.761H466.923Z" fill="black"/>
</g>
<path d="M280.957 266V142.487H324.138C332.742 142.487 339.838 143.975 345.427 146.95C351.016 149.885 355.177 153.845 357.911 158.831C360.645 163.776 362.012 169.264 362.012 175.295C362.012 180.603 361.067 184.985 359.177 188.443C357.328 191.9 354.875 194.634 351.82 196.645C348.804 198.655 345.527 200.143 341.989 201.108V202.314C345.769 202.555 349.568 203.882 353.388 206.294C357.207 208.706 360.404 212.164 362.977 216.667C365.55 221.17 366.837 226.679 366.837 233.192C366.837 239.384 365.429 244.952 362.615 249.898C359.801 254.843 355.358 258.763 349.287 261.658C343.216 264.553 335.315 266 325.585 266H280.957ZM295.913 252.732H325.585C335.355 252.732 342.291 250.842 346.392 247.063C350.533 243.243 352.604 238.62 352.604 233.192C352.604 229.011 351.538 225.151 349.407 221.613C347.276 218.034 344.241 215.18 340.301 213.049C336.36 210.878 331.697 209.792 326.309 209.792H295.913V252.732ZM295.913 196.765H323.655C328.158 196.765 332.219 195.881 335.838 194.112C339.497 192.343 342.391 189.85 344.522 186.633C346.693 183.417 347.779 179.638 347.779 175.295C347.779 169.868 345.889 165.264 342.11 161.485C338.331 157.665 332.34 155.755 324.138 155.755H295.913V196.765Z" fill="black"/>
<path d="M268.043 266V142.486H193.5V155.754H253.086V197.488H197.36V210.756H253.086V252.732H192.536V266H268.043Z" fill="black"/>
<defs>
<filter id="filter0_d_1_3" x="64.5227" y="353.909" width="425.344" height="37.6023" filterUnits="userSpaceOnUse" color-interpolation-filters="sRGB">
<feFlood flood-opacity="0" result="BackgroundImageFix"/>
<feColorMatrix in="SourceAlpha" type="matrix" values="0 0 0 0 0 0 0 0 0 0 0 0 0 0 0 0 0 0 127 0" result="hardAlpha"/>
<feOffset dy="4"/>
<feGaussianBlur stdDeviation="2"/>
<feComposite in2="hardAlpha" operator="out"/>
<feColorMatrix type="matrix" values="0 0 0 0 0 0 0 0 0 0 0 0 0 0 0 0 0 0 0.25 0"/>
<feBlend mode="normal" in2="BackgroundImageFix" result="effect1_dropShadow_1_3"/>
<feBlend mode="normal" in="SourceGraphic" in2="effect1_dropShadow_1_3" result="shape"/>
</filter>
</defs>
</svg>
